:SAMPLES-PER-SECOND 30
:FRAME-RANGE 1-744
:FULLY-SPECIFIED
:DEGREES
233
root  -14.1724 38.4668 -13.1987 1.19952 10.6507 -2.71666
RightUpLeg  -23.7252 -11.257 -6.9048
RightLeg  69.1441 1.60934 3.94565
RightFoot  -2.46413 -0.218018 2.59112
RightToes  -5.28216e-011 1.2921e-014 -6.02303e-014
Spine  -19.7489 -9.48695 11.7667
Spine1  13.2651 -9.42048 -13.3429
HEad  17.2288 26.0304 -2.78303
LeftShoulder1  0.896223 -0.0762477 -20.3022
LeftArm  -7.33311 19.821 -46.2008
LeftForeArm  12.2352 -65.4647 -24.582
LeftHand  0.0489506 3.03385 -3.34788
RightShoulder  0.957966 -0.29588 25.6437
RightArm  -1.7069 -12.5697 40.1356
RightForeArm  34.4049 73.1057 36.4377
RightHand  -0.108074 -9.5877 1.46469
LeftUpLeg  -13.1151 -26.2757 -9.6161
LeftLeg  25.8245 15.7949 8.83332
LeftFoot  -10.19 -0.00134502 6.23475
LeftToes  -9.4837e-011 -7.11147e-011 -1.07582e-011
234
root  -14.2124 38.5563 -11.7889 1.3851 11.4661 -2.34233
RightUpLeg  -27.1066 -9.6311 -6.57142
RightLeg  63.105 0.714879 0.987514
RightFoot  -4.75728 -0.15293 2.0954
RightToes  -5.28216e-011 1.2921e-014 -6.02303e-014
Spine  -21.1711 -8.91528 9.51495
Spine1  14.4134 -8.86575 -11.6471
HEad  17.7782 26.4284 -2.87647
LeftShoulder1  1.07997 -0.78327 -20.211
LeftArm  -7.63049 18.5654 -47.3727
LeftForeArm  11.7274 -64.6018 -23.5321
LeftHand  0.0420907 3.21348 -3.31318
RightShoulder  0.856567 -0.623526 25.7205
RightArm  -2.20095 -11.0668 39.6739
RightForeArm  32.3032 72.5142 35.0842
RightHand  -0.0991324 -9.8548 1.11999
LeftUpLeg  -10.0413 -21.1942 -10.6897
LeftLeg  24.1524 10.8853 7.12014
LeftFoot  -12.1772 0.127106 7.36107
LeftToes  -9.4837e-011 -7.11147e-011 -1.07582e-011
235
root  -14.2427 38.6176 -10.3482 1.22154 12.3529 -2.23068
RightUpLeg  -28.6762 -7.83887 -6.07666
RightLeg  54.1848 -1.70928 -2.93653
RightFoot  -6.7775 -0.149929 2.60578
RightToes  -5.28216e-011 1.2921e-014 -6.02303e-014
Spine  -22.19 -8.28486 7.88882
Spine1  15.4781 -8.23362 -10.0368
HEad  18.0511 26.7795 -2.705
LeftShoulder1  1.22644 -1.3493 -20.1442
LeftArm  -8.0962 16.7358 -48.6675
LeftForeArm  11.0015 -63.3414 -22.1401
LeftHand  0.04751 3.11158 -3.41444
RightShoulder  0.78682 -0.848768 25.7842
RightArm  -2.9642 -9.4331 39.5788
RightForeArm  30.1585 71.7748 33.467
RightHand  -0.0917354 -9.97717 0.895348
LeftUpLeg  -6.6275 -16.5992 -11.1843
LeftLeg  22.4555 6.33533 5.87611
LeftFoot  -13.9628 0.282869 8.66908
LeftToes  -9.4837e-011 -7.11147e-011 -1.07582e-011
236
root  -14.2289 38.7021 -8.91398 0.785706 13.2452 -2.4303
RightUpLeg  -28.2593 -5.3241 -5.70041
RightLeg  42.247 -4.92983 -5.05985
RightFoot  -7.54176 -0.134077 2.497
RightToes  -5.28216e-011 1.2921e-014 -6.02303e-014
Spine  -22.703 -7.51382 7.15942
Spine1  16.1435 -7.51235 -8.44262
HEad  18.5067 27.2102 -2.37291
LeftShoulder1  1.28666 -1.55833 -20.2588
LeftArm  -8.39014 14.5574 -49.7044
LeftForeArm  10.1547 -61.8085 -20.6355
LeftHand  0.0861011 2.37243 -3.90798
RightShoulder  0.761582 -0.927663 25.7736
RightArm  -3.54968 -7.63867 39.6374
RightForeArm  27.8313 70.7758 31.447
RightHand  -0.0862008 -10.0311 0.745631
LeftUpLeg  -2.83394 -12.892 -10.7999
LeftLeg  20.2654 2.43323 4.60092
LeftFoot  -15.3486 0.407897 8.99683
LeftToes  -9.4837e-011 -7.11147e-011 -1.07582e-011
237
root  -14.212 38.7103 -7.488 0.181503 14.0874 -2.65123
RightUpLeg  -26.0899 -1.60965 -6.03188
RightLeg  27.6361 -6.64464 -3.9815
RightFoot  -7.54277 -0.155707 3.14866
RightToes  -5.28216e-011 1.2921e-014 -6.02303e-014
Spine  -22.7178 -6.69284 6.76647
Spine1  16.5669 -6.74215 -7.11403
HEad  18.8481 27.8657 -1.95761
LeftShoulder1  1.29785 -1.58448 -20.3526
LeftArm  -8.93304 13.5332 -50.3097
LeftForeArm  10.5157 -61.6151 -20.4067
LeftHand  0.175499 1.2144 -5.13628
RightShoulder  0.798583 -0.795845 25.5734
RightArm  -3.94108 -5.54198 40.1273
RightForeArm  24.8688 69.3682 28.9917
RightHand  -0.0727438 -10.0294 0.424201
LeftUpLeg  0.860163 -10.1316 -9.965
LeftLeg  18.5648 -0.456902 3.36141
LeftFoot  -16.7599 0.569086 9.86539
LeftToes  -9.4837e-011 -7.11147e-011 -1.07582e-011
238
root  -14.182 38.6141 -6.01923 -0.732254 15.0488 -2.68933
RightUpLeg  -23.0204 1.76836 -6.88191
RightLeg  13.255 -4.03103 -1.48879
RightFoot  -7.917 -0.171098 3.92182
RightToes  -5.28216e-011 1.2921e-014 -6.02303e-014
Spine  -21.977 -5.85341 6.13592
Spine1  16.5252 -5.98669 -5.74328
HEad  19.2261 28.2753 -1.5477
LeftShoulder1  1.31362 -1.59763 -20.6207
LeftArm  -9.29429 12.1685 -50.6641
LeftForeArm  9.87716 -61.1778 -20.061
LeftHand  0.155535 1.659 -5.21172
RightShoulder  0.826347 -0.677187 25.1874
RightArm  -4.00963 -3.3117 40.6528
RightForeArm  22.5542 67.9441 26.8099
RightHand  -0.0662598 -9.99289 0.276042
LeftUpLeg  4.82107 -7.91315 -9.16984
LeftLeg  17.2958 -3.04788 2.38
LeftFoot  -18.2449 0.740015 10.4142
LeftToes  -9.4837e-011 -7.11147e-011 -1.07582e-011
239
root  -14.1735 38.3706 -4.51927 -2.14769 16.0891 -2.39398
RightUpLeg  -20.0473 -2.02226 -5.49238
RightLeg  3.05288 8.32295 -1.13427
RightFoot  -9.95182 -0.14854 6.66115
RightToes  -5.28216e-011 1.2921e-014 -6.02303e-014
Spine  -20.2467 -5.0056 5.02854
Spine1  16.1341 -5.15871 -4.50522
HEad  19.0635 28.5087 -1.47696
LeftShoulder1  1.3318 -1.64868 -20.7182
LeftArm  -9.56268 10.4388 -50.9752
LeftForeArm  8.54221 -60.4412 -19.5312
LeftHand  0.0790991 2.32922 -3.56943
RightShoulder  0.87815 -0.472092 24.7389
RightArm  -3.92886 -0.846449 41.3337
RightForeArm  20.4383 66.3856 24.7366
RightHand  -0.0622948 -9.90405 0.196009
LeftUpLeg  9.05651 -6.36364 -8.59106
LeftLeg  16.9869 -5.25261 1.42574
LeftFoot  -20.0796 0.935688 10.629
LeftToes  -9.4837e-011 -7.11147e-011 -1.07582e-011
240
root  -14.197 38.0936 -3.00371 -3.77179 17.4294 -2.09276
RightUpLeg  -18.0952 -2.94401 -5.28618
RightLeg  0.0345018 15.7986 -1.41865
RightFoot  -11.8654 -0.0328468 10.4585
RightToes  -5.28216e-011 1.2921e-014 -6.02303e-014
Spine  -17.8934 -4.15231 3.50665
Spine1  15.2071 -4.4426 -2.9128
HEad  19.2233 28.6499 -1.4503
LeftShoulder1  1.36401 -1.76417 -20.7433
LeftArm  -10.1747 9.42721 -51.3049
LeftForeArm  7.73702 -60.2081 -19.4092
LeftHand  0.0360096 2.96502 -2.58761
RightShoulder  0.959961 -0.17779 24.4519
RightArm  -3.58472 1.83254 41.9531
RightForeArm  17.6773 64.405 22.5464
RightHand  -0.0493744 -9.78971 -0.108697
LeftUpLeg  13.1281 -6.31924 -8.18517
LeftLeg  17.6092 -6.28683 0.526459
LeftFoot  -21.5466 1.0559 10.3395
LeftToes  -9.4837e-011 -7.11147e-011 -1.07582e-011
241
root  -14.2046 37.8761 -1.54369 -5.16798 18.75 -2.03568
RightUpLeg  -17.6623 -1.70055 -5.19621
RightLeg  4.84234 17.1619 -0.319218
RightFoot  -9.92409 -0.220275 12.2922
RightToes  -5.28216e-011 1.2921e-014 -6.02303e-014
Spine  -15.2939 -3.28232 2.86017
Spine1  13.8491 -3.66722 -1.82723
HEad  19.809 29.581 -1.05858
LeftShoulder1  1.30261 -1.53171 -20.7674
LeftArm  -10.955 9.17768 -51.4281
LeftForeArm  7.81974 -60.4314 -19.5983
LeftHand  0.0143808 3.54799 -2.23812
RightShoulder  1.09612 0.269111 24.4613
RightArm  -2.9328 5.02538 43.0561
RightForeArm  14.684 61.4694 19.8146
RightHand  -0.0356284 -9.52392 -0.444436
LeftUpLeg  16.3376 -8.56975 -8.14193
LeftLeg  19.2013 -5.24273 -0.623121
LeftFoot  -22.1468 0.959597 8.71697
LeftToes  -9.4837e-011 -7.11147e-011 -1.07582e-011
